<?xml version="1.0" encoding="utf-8"?>
<!-- Generator: Adobe Illustrator 22.1.0, SVG Export Plug-In . SVG Version: 6.00 Build 0)  -->
<svg version="1.1" id="Layer_1" xmlns="http://www.w3.org/2000/svg" xmlns:xlink="http://www.w3.org/1999/xlink" x="0px" y="0px"
	 viewBox="0 0 512 512" style="enable-background:new 0 0 512 512;" xml:space="preserve">
<g>
	<path d="M208.6,228.1c5.7-4.1,8.4-11,8.4-20.5c0-5.3-0.9-9.6-2.7-12.9c-1.9-3.3-4.4-6-7.6-7.8c-3.2-1.9-6.8-3.3-10.9-4
		c-4.1-0.8-8.4-1.2-12.7-1.2h-46.3v52.6h50.1C195.6,234.5,202.9,232.3,208.6,228.1L208.6,228.1z"/>
	<path d="M216.5,275.6c-6.5-4.9-15.1-7.4-25.8-7.4h-53.9v62h52.8c4.9,0,9.5-0.4,13.9-1.4c4.4-1,8.4-2.5,11.7-4.8
		c3.3-2.2,6.1-5.2,8.1-9c2-3.8,3-8.7,3-14.6C226.2,288.9,222.9,280.6,216.5,275.6L216.5,275.6z"/>
	<path d="M438.8,31H73.2C50,31,31,50,31,73.2v365.6C31,462,50,481,73.2,481h365.6c23.2,0,42.2-19,42.2-42.2V73.2
		C481,50,462,31,438.8,31z M326,149.4h91.2v22.2H326V149.4z M269,332.6c-4.4,8.4-10.4,15.1-17.7,20.4c-7.5,5.3-16,9.1-25.6,11.7
		c-9.5,2.6-19.4,3.8-29.4,3.8H87.3V143.6h106c10.7,0,20.5,1,29.4,2.8c8.8,1.9,16.3,5,22.7,9.3c6.2,4.3,11.2,10,14.7,17.1
		c3.4,7,5.2,15.9,5.2,26.4c0,11.3-2.6,20.7-7.7,28.3c-5.2,7.6-12.7,13.7-22.9,18.5c13.9,4,24.1,11,30.9,20.9
		c6.9,10,10.2,22.1,10.2,36.1C275.6,314.6,273.4,324.4,269,332.6L269,332.6z M452.6,297.9H335.1c0,12.8,4.4,25.1,11.1,31.6
		c6.7,6.5,16.3,9.8,28.9,9.8c9.1,0,16.8-2.3,23.4-6.9c6.5-4.6,10.5-9.4,12-14.4h39.4c-6.3,19.6-15.9,33.6-29,42
		c-12.9,8.4-28.7,12.7-47.1,12.7c-12.8,0-24.4-2.1-34.7-6.2c-10.4-4.1-19-9.9-26.3-17.5c-7.1-7.6-12.6-16.6-16.5-27.2
		c-3.9-10.5-5.9-22.1-5.9-34.7c0-12.2,2-23.6,6-34.1c4.1-10.5,9.7-19.7,17-27.3c7.4-7.6,16.2-13.7,26.4-18.2
		c10.2-4.4,21.4-6.6,33.9-6.6c13.8,0,25.8,2.6,36.2,8.1c10.3,5.4,18.7,12.6,25.4,21.6c6.7,9.1,11.3,19.4,14.3,30.9
		C452.5,273.1,453.4,285.2,452.6,297.9L452.6,297.9z"/>
	<path d="M372.3,234.8c-7.1,0-13.1,1.2-17.7,3.7s-8.4,5.5-11.3,9c-2.9,3.6-4.8,7.4-6,11.5c-1.2,4-1.9,7.6-2,10.7H408
		c-1-11.4-5-19.9-10.3-25.8C392.2,237.9,383.3,234.8,372.3,234.8L372.3,234.8z"/>
</g>
</svg>
